<?xml version="1.0" encoding="UTF-8" standalone="no"?><!DOCTYPE svg PUBLIC "-//W3C//DTD SVG 1.1//EN" "http://www.w3.org/Graphics/SVG/1.1/DTD/svg11.dtd"><svg width="100%" height="100%" viewBox="0 0 63 59" version="1.1" xmlns="http://www.w3.org/2000/svg" xmlns:xlink="http://www.w3.org/1999/xlink" xml:space="preserve" xmlns:serif="http://www.serif.com/" style="fill-rule:evenodd;clip-rule:evenodd;stroke-linejoin:round;stroke-miterlimit:2;"><g><path d="M4.755,39.662l-0,2.15c17.67,15.369 35.341,15.369 53.012,-0l-0,-2.15l-53.012,0Z" style="fill:#fff;fill-rule:nonzero;"/><path d="M4.755,39.662l9.899,0.912c0.521,0.044 0.846,0.348 0.977,0.912l0.26,4.363l8.597,0.652l0.521,-3.973c0.087,-0.478 0.412,-0.803 0.977,-0.977l10.55,0c0.564,0.174 0.89,0.499 0.977,0.977l0.521,3.973l8.596,-0.652l0.261,-4.363c0.13,-0.564 0.456,-0.868 0.977,-0.912l9.899,-0.912l-0,-16.02c1.302,-1.694 2.518,-3.452 3.647,-5.275c-1.52,-2.562 -3.322,-4.906 -5.406,-7.034c-1.867,0.868 -3.647,1.889 -5.34,3.061c-1.737,-1.606 -3.647,-2.996 -5.731,-4.168c0.304,-2.214 0.478,-4.429 0.521,-6.643c-2.562,-1.215 -5.232,-2.127 -8.01,-2.735c-1.129,1.867 -2.128,3.799 -2.996,5.796c-2.128,-0.304 -4.255,-0.304 -6.382,0c-0.869,-1.997 -1.867,-3.929 -2.996,-5.796c-2.779,0.608 -5.449,1.52 -8.011,2.735c0.044,2.214 0.218,4.429 0.521,6.643c-2.084,1.172 -3.994,2.562 -5.731,4.168c-1.693,-1.172 -3.473,-2.193 -5.34,-3.061c-2.084,2.128 -3.886,4.472 -5.405,7.034c1.129,1.823 2.344,3.581 3.647,5.275l-0,16.02Zm-0,2.15l-0,2.539c-0,17.975 52.946,17.975 53.012,0l-0,-2.539l-8.727,0.781l-0.326,4.494c-0.087,0.434 -0.391,0.716 -0.912,0.846l-10.55,0.717c-0.521,-0 -0.868,-0.239 -1.042,-0.717l-0.651,-4.233l-8.597,0l-0.651,4.233c-0.173,0.478 -0.521,0.717 -1.042,0.717l-10.55,-0.717c-0.521,-0.13 -0.825,-0.412 -0.912,-0.846l-0.325,-4.494l-8.727,-0.781Z" style="fill:#478cbf;fill-rule:nonzero;"/><path d="M29.372,34.908c0,2.215 3.777,2.215 3.777,0l0,-5.6c0,-2.215 -3.777,-2.215 -3.777,-0l0,5.6Z" style="fill:#fff;fill-rule:nonzero;"/><circle cx="45.132" cy="30.089" r="5.861" style="fill:#fff;"/><circle cx="17.389" cy="30.089" r="5.861" style="fill:#fff;"/></g><g><circle cx="17.91" cy="30.48" r="3.908" style="fill:#414042;"/><circle cx="44.611" cy="30.48" r="3.908" style="fill:#414042;"/></g></svg>